<?xml version="1.0"?>
<svg width="11" height="12" xmlns="http://www.w3.org/2000/svg" xmlns:svg="http://www.w3.org/2000/svg">
 <g class="layer">
  <title>Arrow Up</title>
  <path d="m10.2,5.2l0.52,0.52c0.21,0.23 0.21,0.58 0,0.8l-4.57,4.57c-0.21,0.21 -0.56,0.21 -0.77,0l-4.58,-4.57c-0.21,-0.22 -0.21,-0.57 0,-0.8l0.52,-0.52c0.23,-0.21 0.59,-0.21 0.82,0.03l2.67,2.81l0,-6.73c0,-0.33 0.26,-0.56 0.57,-0.56l0.75,0c0.32,0 0.56,0.23 0.56,0.56l0,6.73l2.69,-2.84c0.24,-0.21 0.59,-0.23 0.82,0z" fill="#787A80" id="svg_1" transform="rotate(179.322 5.76 5.99875)"/>
 </g>
</svg>