<svg width="11" height="12" viewBox="0 0 11 12" fill="none" xmlns="http://www.w3.org/2000/svg">
<path d="M10.2031 5.20312L10.7188 5.71875C10.9297 5.95312 10.9297 6.30469 10.7188 6.51562L6.14844 11.0859C5.9375 11.2969 5.58594 11.2969 5.375 11.0859L0.804688 6.51562C0.593751 6.30469 0.593751 5.95312 0.804688 5.71875L1.32031 5.20312C1.55469 4.99219 1.90625 4.99219 2.14063 5.22656L4.8125 8.03906L4.8125 1.3125C4.8125 0.984374 5.07031 0.749999 5.375 0.75L6.125 0.75C6.45313 0.75 6.6875 0.984375 6.6875 1.3125L6.6875 8.03906L9.38281 5.20312C9.61719 4.99219 9.96875 4.96875 10.2031 5.20312Z" fill="#787A80"/>
</svg>
